<mxfile host="app.diagrams.net" modified="2022-11-20T13:52:50.233Z" agent="5.0 (Macintosh; Intel Mac OS X 10_15_7) AppleWebKit/605.1.15 (KHTML, like Gecko) Version/16.1 Safari/605.1.15" etag="HivM7khniGcZyF31OddV" version="20.5.3" type="github">
  <diagram id="5hAWc3Epzwj-j9W6ENK-" name="Page-1">
    <mxGraphModel dx="1765" dy="1113" grid="1" gridSize="10" guides="1" tooltips="1" connect="1" arrows="1" fold="1" page="1" pageScale="1" pageWidth="850" pageHeight="1100" math="0" shadow="0">
      <root>
        <mxCell id="0" />
        <mxCell id="1" parent="0" />
        <mxCell id="dEkMdDUnqqEuPVsrQOii-5" value="DS920" style="rounded=0;whiteSpace=wrap;html=1;labelPosition=center;verticalLabelPosition=top;align=center;verticalAlign=bottom;fontSize=30;fillColor=#575757;fontColor=#E3E3E3;" parent="1" vertex="1">
          <mxGeometry x="165" y="310" width="405" height="310" as="geometry" />
        </mxCell>
        <mxCell id="dEkMdDUnqqEuPVsrQOii-8" value="RAID 5" style="rounded=0;whiteSpace=wrap;html=1;fontSize=24;fontColor=#E3E3E3;fillColor=#575757;labelPosition=center;verticalLabelPosition=top;align=center;verticalAlign=bottom;" parent="1" vertex="1">
          <mxGeometry x="213" y="370" width="307" height="200" as="geometry" />
        </mxCell>
        <mxCell id="dEkMdDUnqqEuPVsrQOii-12" value="8TB HDD" style="rounded=0;whiteSpace=wrap;html=1;fontSize=17;fontColor=#ADADAD;fillColor=#303030;" parent="1" vertex="1">
          <mxGeometry x="380" y="390" width="120" height="60" as="geometry" />
        </mxCell>
        <mxCell id="dEkMdDUnqqEuPVsrQOii-13" value="8TB HDD" style="rounded=0;whiteSpace=wrap;html=1;fontSize=17;fontColor=#ADADAD;fillColor=#303030;" parent="1" vertex="1">
          <mxGeometry x="230" y="490" width="120" height="60" as="geometry" />
        </mxCell>
        <mxCell id="dEkMdDUnqqEuPVsrQOii-14" value="8TB HDD" style="rounded=0;whiteSpace=wrap;html=1;fontSize=17;fontColor=#ADADAD;fillColor=#303030;" parent="1" vertex="1">
          <mxGeometry x="380" y="490" width="120" height="60" as="geometry" />
        </mxCell>
        <mxCell id="V9e0uKZQb9McLUmHxfOt-1" value="8TB HDD" style="rounded=0;whiteSpace=wrap;html=1;fontSize=17;fontColor=#ADADAD;fillColor=#303030;" parent="1" vertex="1">
          <mxGeometry x="230" y="390" width="120" height="60" as="geometry" />
        </mxCell>
      </root>
    </mxGraphModel>
  </diagram>
</mxfile>
